<?xml version="1.0" encoding="UTF-8"?><svg id="_レイヤー_1" xmlns="http://www.w3.org/2000/svg" xmlns:xlink="http://www.w3.org/1999/xlink" viewBox="0 0 356.03 61.34"><defs><style>.cls-1{fill:#161f2b;}.cls-2{fill:#e0cc12;}.cls-3{fill:url(#_名称未設定グラデーション);}.cls-4{fill:#1368e7;}.cls-5{fill:#f1bb34;}</style><linearGradient id="_名称未設定グラデーション" x1="3.47" y1="73.09" x2="47.9" y2="-3.37" gradientTransform="translate(0 64.02) scale(1 -1)" gradientUnits="userSpaceOnUse"><stop offset="0" stop-color="#fff"/><stop offset="0" stop-color="#a8cd31"/><stop offset="1" stop-color="#006934"/></linearGradient></defs><path class="cls-3" d="M26.56,0L0,15.33v30.67l26.56,15.33,26.56-15.33V15.33L26.56,0Zm-.3,53.5L6.32,42.26V19.1l6.74-3.62v22.77l19.84,11.53-6.64,3.71Zm19.94-11.24l-6.74,3.71-19.84-11.48V11.38l6.65-3.81,19.94,11.73-6.94,3.61-12.7-7.43v15.25l19.64,11.53Z"/><polygon class="cls-5" points="39.26 22.91 46.2 19.3 26.26 7.57 19.61 11.38 19.61 34.49 39.45 45.98 46.2 42.26 26.55 30.73 26.55 15.49 39.26 22.91"/><path class="cls-4" d="M26.56,0L0,15.33v30.67l26.56,15.33,26.56-15.33V15.33L26.56,0Zm-.3,53.5L6.32,42.26V19.1l6.74-3.62v22.77l19.84,11.53-6.64,3.71Zm19.94-11.24l-6.74,3.71-19.84-11.48V11.38l6.65-3.81,19.94,11.73-6.94,3.61-12.7-7.43v15.25l19.64,11.53Z"/><polygon class="cls-2" points="39.26 22.91 46.2 19.3 26.26 7.57 19.61 11.38 19.61 34.49 39.45 45.98 46.2 42.26 26.55 30.73 26.55 15.49 39.26 22.91"/><g><path class="cls-1" d="M87.59,43.01h-3.33l-7.89-22.68h4.69l5.07,15.43,5.54-15.64h2.45l5.24,15.64,5.44-15.43h4.69l-8.4,22.68h-3.33l-4.96-14.38-5.2,14.38Z"/><path class="cls-1" d="M122.82,38.25h-9.15l-2.01,4.76h-4.79l9.76-22.68h3.47l9.48,22.68h-4.76l-2.01-4.76Zm-1.29-3.6l-3.23-8.16-3.23,8.16h6.46Z"/><path class="cls-1" d="M154.58,31.69c0,6.9-4.96,11.83-12.1,11.83s-12.1-4.93-12.1-11.83,4.96-11.86,12.1-11.86,12.1,4.96,12.1,11.86Zm-4.56,0c0-4.59-3.13-7.85-7.55-7.85s-7.55,3.26-7.55,7.85,3.13,7.82,7.55,7.82,7.55-3.23,7.55-7.82Z"/></g><g><path class="cls-1" d="M171.11,20.33v18.87h7v3.81h-11.42V20.33h4.42Z"/><path class="cls-1" d="M195.12,38.89c-.44,1.09-2.11,4.59-7.24,4.59-2.38,0-4.18-.68-5.64-2.07-1.63-1.53-2.31-3.43-2.31-5.75,0-2.92,1.19-4.73,2.24-5.78,1.73-1.7,3.77-2.07,5.54-2.07,2.99,0,4.73,1.19,5.75,2.41,1.56,1.87,1.77,4.18,1.77,5.78v.34h-11.01c0,.88,.24,1.84,.71,2.48,.44,.61,1.36,1.39,2.96,1.39s2.75-.75,3.43-1.94l3.81,.61Zm-3.81-5.2c-.34-2.01-1.97-2.96-3.5-2.96s-3.13,.99-3.47,2.96h6.97Z"/><path class="cls-1" d="M203.38,31.82v11.18h-4.15v-11.18h-1.63v-3.54h1.63v-5.03h4.15v5.03h2.86v3.54h-2.86Z"/><path class="cls-1" d="M212.22,19.89l3.81,.44-4.79,9.01-2.62-.31,3.6-9.15Z"/><path class="cls-1" d="M220.92,31.79c-.99-.92-1.97-.99-2.41-.99-.99,0-1.6,.48-1.6,1.19,0,.37,.17,.95,1.33,1.33l.99,.31c1.16,.37,2.89,.95,3.74,2.11,.44,.61,.75,1.5,.75,2.45,0,1.33-.44,2.65-1.63,3.74-1.19,1.09-2.62,1.56-4.42,1.56-3.06,0-4.79-1.46-5.71-2.45l2.18-2.52c.82,.95,2.04,1.7,3.26,1.7,1.16,0,2.04-.58,2.04-1.6,0-.92-.75-1.29-1.29-1.5l-.95-.34c-1.05-.37-2.28-.85-3.16-1.77-.68-.71-1.12-1.63-1.12-2.82,0-1.43,.68-2.62,1.53-3.33,1.16-.92,2.65-1.05,3.84-1.05,1.09,0,2.82,.14,4.69,1.56l-2.04,2.41Z"/></g><g><path class="cls-1" d="M253.36,42.19c-1.36,.71-3.16,1.33-5.61,1.33-3.98,0-6.39-1.36-8.29-3.16-2.62-2.52-3.64-5.34-3.64-8.67,0-4.11,1.7-7.07,3.64-8.87,2.28-2.14,5.1-2.99,8.33-2.99,1.6,0,3.5,.27,5.58,1.39v5.17c-2.07-2.38-4.66-2.55-5.47-2.55-4.56,0-7.51,3.74-7.51,7.92,0,5.03,3.88,7.75,7.68,7.75,2.11,0,3.98-.92,5.3-2.48v5.17Z"/><path class="cls-1" d="M270.31,29.88c1.46,1.33,2.48,3.37,2.48,5.78s-1.02,4.42-2.48,5.75c-1.26,1.16-3.16,2.07-5.95,2.07s-4.69-.92-5.95-2.07c-1.46-1.33-2.48-3.37-2.48-5.75s1.02-4.45,2.48-5.78c1.26-1.16,3.16-2.07,5.95-2.07s4.69,.92,5.95,2.07Zm-1.8,5.78c0-2.31-1.77-4.18-4.15-4.18s-4.15,1.87-4.15,4.18,1.73,4.15,4.15,4.15,4.15-1.9,4.15-4.15Z"/><path class="cls-1" d="M286.96,18.22h4.15v24.78h-4.15v-1.9c-1.5,2.14-3.47,2.38-4.52,2.38-4.52,0-7.51-3.54-7.51-7.85s2.96-7.82,7.31-7.82c1.12,0,3.33,.2,4.73,2.38v-11.97Zm-7.75,17.41c0,2.35,1.7,4.18,4.08,4.18s4.08-1.84,4.08-4.18-1.7-4.15-4.08-4.15-4.08,1.8-4.08,4.15Z"/><path class="cls-1" d="M309.31,38.89c-.44,1.09-2.11,4.59-7.24,4.59-2.38,0-4.18-.68-5.64-2.07-1.63-1.53-2.31-3.43-2.31-5.75,0-2.92,1.19-4.73,2.24-5.78,1.73-1.7,3.77-2.07,5.54-2.07,2.99,0,4.73,1.19,5.75,2.41,1.56,1.87,1.77,4.18,1.77,5.78v.34h-11.01c0,.88,.24,1.84,.71,2.48,.44,.61,1.36,1.39,2.96,1.39s2.75-.75,3.43-1.94l3.81,.61Zm-3.81-5.2c-.34-2.01-1.97-2.96-3.5-2.96s-3.13,.99-3.47,2.96h6.97Z"/></g><g><path class="cls-1" d="M328.11,20.33c2.55,0,4.32,.27,5.98,1.73,1.84,1.63,2.31,3.84,2.31,5.47,0,.88-.14,3.33-1.87,5.07-1.26,1.26-3.13,2.01-5.75,2.01h-2.86v8.4h-4.42V20.33h6.59Zm-2.18,10.47h1.8c.85,0,1.94,0,2.89-.71,.82-.65,1.22-1.67,1.22-2.65,0-1.26-.61-2.11-1.26-2.58-.92-.65-2.07-.71-3.13-.71h-1.53v6.66Z"/><path class="cls-1" d="M344.88,40.8l-7-12.51h4.83l4.56,8.36,4.08-8.36h4.69l-11.86,22.51h-4.69l5.41-10Z"/></g></svg>